<svg version="1.1" xmlns="http://www.w3.org/2000/svg" xmlns:xlink="http://www.w3.org/1999/xlink" width="262" height="150" viewBox="808.5,410,262,150"><defs><clipPath id="clip-1"><rect x="808.5" y="410" width="262" height="150" id="clip-1" fill="none" stroke="none" stroke-width="1"/></clipPath></defs><g fill="none" fill-rule="nonzero" stroke="none" stroke-width="none" stroke-linecap="butt" stroke-linejoin="miter" stroke-miterlimit="10" stroke-dasharray="" stroke-dashoffset="0" font-family="none" font-weight="none" font-size="none" text-anchor="none" style="mix-blend-mode: normal"><g><g clip-path="url(#clip-1)" id="Group 1"><g id="Group 1" fill="none" stroke="#b68dc7" stroke-width="2"><path d="M853.25,423.22c0.02667,0.30667 0.05,0.81667 0.07,1.53c0.01333,0.79333 0.58333,1.23333 1.71,1.32c0.65243,0.04919 1.2324,-0.41304 1.33,-1.06c0.42,-2.76 0.44333,-5.26 0.07,-7.5c-0.19333,-1.15333 -0.55667,-1.82 -1.09,-2c-1.40396,-0.46472 -2.92447,0.2472 -3.46,1.62c-1.18,3 -2.8,5.77 -3.75,8.72c-2.4,7.45 -5.09,14.93 -7.17,22.3c-3.06,10.86667 -6.13,21.73333 -9.21,32.6c-1.76667,6.23333 -5.22,19.91667 -10.36,41.05c-1.22,5.02 -3.68,11.31 -2.05,16.48c2.11,6.68 11.34,3.72 15.61,1.37c9.9,-5.45333 19.86,-10.79333 29.88,-16.02c5.47333,-2.86 11.24667,-4.55667 17.32,-5.09c0.45044,-0.03912 0.85635,-0.28754 1.09616,-0.67084c0.23981,-0.3833 0.28567,-0.85698 0.12384,-1.27916c-1.83,-4.74 -19.64,3.72 -22.84,5.25c-2.89,1.39 -6.46,3.68 -9.9,5.24c-1,0.46 -1.6,1.18 -2.56,1.73c-6.7,3.79 -14.08,8.25 -21.6,10.06c-4.72,1.14 -4.59,-4.2 -4.14,-6.8c0.52667,-3.02 1.54333,-7.55 3.05,-13.59c5.67333,-22.70667 11.77667,-45.29667 18.31,-67.77c2.58667,-8.9 5.59667,-18.08667 9.03,-27.56c0.26667,-0.74667 0.44333,-0.72333 0.53,0.07" id="Path 1"/><path d="M904.25,496.44c1.6,-6.64 3.72333,-13.11 6.37,-19.41c0.54,-1.29 0.35,-2.65 -1.17,-2.91c-0.37369,-0.0675 -0.7514,0.0751 -0.98,0.37c-2.11,2.73 -2.33,6.02 -4,8.9c-3.55333,6.13333 -8.22333,12.06333 -14.01,17.79c-0.86667,0.86667 -1.77,1.20333 -2.71,1.01c-0.34236,-0.06746 -0.60326,-0.33639 -0.65,-0.67c-0.58,-3.90667 -0.37,-7.76333 0.63,-11.57c0.32,-1.20667 0.23333,-2.30667 -0.26,-3.3c-0.26168,-0.5301 -0.7733,-0.89225 -1.36024,-0.96284c-0.58694,-0.07059 -1.16984,0.15991 -1.54976,0.61284c-2.77,3.31 -4.56,6.98 -8.15,9.88c-0.28006,0.22824 -0.65746,0.29652 -1.00146,0.18119c-0.34399,-0.11534 -0.60725,-0.39843 -0.69854,-0.75119c-0.89,-3.45 0.25,-7.05 1.98,-10.65c0.53,-1.1 0.28,-2.19 -0.85,-2.64c-0.32667,-0.14 -0.63667,-0.10333 -0.93,0.11c-3.31,2.41 -5.35,13.44 -2.04,16.19c4.19,3.47 8.1,-2.29 10.49,-4.92c0.28667,-0.32 0.42,-0.26333 0.4,0.17c-0.12,3.02 -1.23,9.44 2.07,11.34c4.71,2.71 12.31,-7.56 14.95,-10.65c0.35333,-0.40667 0.48667,-0.34333 0.4,0.19c-0.31,1.92 -1.14,4.1 -1.35,5.59c-0.24667,1.69333 -0.35667,3.36333 -0.33,5.01c0.01213,0.64032 0.3831,1.21949 0.95968,1.49827c0.57658,0.27878 1.2609,0.20987 1.77032,-0.17827c0.68667,-0.52667 1.29,-1.29667 1.81,-2.31c3.17333,-6.20667 6.69667,-12.12 10.57,-17.74c0.32,-0.46667 0.45333,-0.42 0.4,0.14c-0.29,3.13 -0.53,10.91 2.68,12.87c4.3,2.61 8.86,-10.44 10.23,-13.19c0.50667,-1.02667 0.79667,-0.97 0.87,0.17c0.11333,1.73333 0.55333,3.55667 1.32,5.47c1.47,3.66 5.51,4.65 8.98,3.09c2.51333,-1.12667 4.62333,-2.61 6.33,-4.45c0.14445,-0.16183 0.3785,-0.20443 0.57208,-0.10414c0.19358,0.10029 0.2991,0.31882 0.25792,0.53414l-2.67,13.34c-0.20886,1.0157 0.41352,2.01939 1.42,2.29c1.16667,0.32 2.06,-0.11667 2.68,-1.31c3.34,-6.38667 6.94,-12.56 10.8,-18.52c0.68,-1.05333 0.95667,-0.95667 0.83,0.29c-0.26,2.66 -0.33,12.04 3.71,12.64c2.34,0.35 3.96,-2.68 4.9,-4.68c1.36,-2.88667 2.67333,-5.61 3.94,-8.17c0.86667,-1.73333 1.28667,-1.63 1.26,0.31c-0.02,1.67333 0.52,3.42667 1.62,5.26c2.7,4.51 6.96,3.88 10.93,1.5c1.34,-0.8 2.36,-2.23 3.94,-3.02c0.12771,-0.06554 0.28179,-0.0513 0.39533,0.03653c0.11353,0.08783 0.16603,0.2334 0.13467,0.37347c-0.87,4.31 1.52,10.08 6.97,7.41c1.9,-0.93 3.48,-3.56 5.13,-5.28c0.38667,-0.40667 0.56,-0.33333 0.52,0.22c-0.11333,1.56667 -0.24333,3.11333 -0.39,4.64c-0.57,5.85 3.94,9.51 8.97,5.11c4.28,-3.74 8.04333,-8.28 11.29,-13.62c0.46667,-0.77333 0.91,-0.76 1.33,0.04c0.55,1.04 0.69,2.43 1.28,3.55c1.72667,3.25333 4.1,7.20667 7.12,11.86c0.78667,1.22 1.29667,2.74667 1.53,4.58c0.04472,0.3266 -0.03792,0.65356 -0.23,0.91c-3.49,4.67 -13.67,19.12 -9.75,23.12c1.97,2.02 5.74,0.43 7.38,-1.23c5.94667,-6.00667 8.15333,-13.33 6.62,-21.97c-0.06,-0.35333 0.02333,-0.66667 0.25,-0.94l21.42,-25.33c0.41625,-0.49078 0.40341,-1.2143 -0.03,-1.69l-0.24,-0.25c-0.27723,-0.30454 -0.6723,-0.47477 -1.08406,-0.46711c-0.41176,0.00766 -0.80022,0.19247 -1.06594,0.50711l-20.45,23.9c-0.02754,0.03144 -0.06851,0.04773 -0.11012,0.04376c-0.04161,-0.00396 -0.07877,-0.02769 -0.09988,-0.06376c-3.08,-6.19 -11.57,-16.07 -9.64,-23.36c1.39,-5.22 6.12,-7.1 11.42,-6.24c1.4,0.23 2.16,-0.53 1.96,-1.91c-0.04667,-0.33333 -0.2,-0.61 -0.46,-0.83c-0.78,-0.64667 -1.70333,-0.99 -2.77,-1.03c-6.39333,-0.22 -10.61,2.32 -12.65,7.62c-0.90667,2.37333 -1.63333,3.98 -2.18,4.82c-2.72,4.2 -10.46,15.32 -15.18,16.74c-0.36,0.10667 -0.61333,-0.01333 -0.76,-0.36c-1.38,-3.21 -0.18,-8.41 0.46,-11.74c0.28,-1.43 0.35,-3.58 -1.11,-4.41c-0.92667,-0.52 -1.74333,-0.24667 -2.45,0.82c-2.1,3.17333 -4.52667,6.24 -7.28,9.2c-0.50605,0.54257 -1.34151,0.61183 -1.93,0.16c-0.18,-0.13333 -0.31333,-0.56 -0.4,-1.28c-0.42667,-3.6 0.23,-6.97667 1.97,-10.13c0.56667,-1.02667 0.41,-1.77333 -0.47,-2.24c-0.74892,-0.39957 -1.67417,-0.21031 -2.2,0.45c-2.83,3.57 -9.21,10.99 -14.33,9.32c-0.31333,-0.10667 -0.54333,-0.31 -0.69,-0.61c-1.49,-2.98 -1.42,-5.59 -1.53,-9.53c-0.04667,-1.5 -0.68333,-2.45 -1.91,-2.85c-1.01452,-0.3272 -2.11442,0.13145 -2.59,1.08l-7.62,14.96c-0.43333,0.85333 -0.81333,0.88667 -1.14,0.1c-1.27,-3.08 -0.61,-10.23 -0.51,-13.61c0.02305,-0.66063 -0.34045,-1.27341 -0.93216,-1.57141c-0.59171,-0.298 -1.30448,-0.22726 -1.82784,0.18141c-0.83333,0.66 -1.63,1.52 -2.39,2.58c-3.03333,4.22667 -5.65333,8.42333 -7.86,12.59c-0.82667,1.55333 -1.04667,1.47 -0.66,-0.25c1.28667,-5.78 3.28,-11.75333 5.98,-17.92c0.32,-0.72667 0.45667,-1.30667 0.41,-1.74c-0.1,-0.89333 -0.69667,-1.33667 -1.79,-1.33c-0.61185,-0.0001 -1.16989,0.3448 -1.44,0.89c-0.75333,1.56 -1.41333,3.18 -1.98,4.86c-0.51333,1.52 -1.23333,2.77333 -2.16,3.76c-3.2,3.4 -5.31,5.74 -9.65,8.17c-6.57,3.67 -6.16,-7.24 -6.26,-10.64c-0.04667,-1.32 -0.67667,-2.00667 -1.89,-2.06c-1.43,-0.06 -2.6,1.23 -3.24,2.36c-2.12667,3.73333 -4.19,8 -6.19,12.8c-0.22,0.54 -0.62667,1 -1.22,1.38c-0.28667,0.18667 -0.48667,0.11667 -0.6,-0.21c-1.22,-3.66 -0.57,-9.73 -0.51,-13.6c0.00819,-0.51433 -0.19252,-1.01001 -0.55626,-1.37374c-0.36374,-0.36374 -0.85941,-0.56444 -1.37374,-0.55626c-0.9,0.02 -1.69667,0.52667 -2.39,1.52c-3.38667,4.86 -6.56,9.86333 -9.52,15.01c-0.26,0.45333 -0.33,0.42333 -0.21,-0.09" id="Path 1"/><path d="M1027,528.13c-0.42,1.09333 -0.60333,2.06667 -0.55,2.92c0.02226,0.30364 0.21291,0.56915 0.49351,0.6873c0.2806,0.11815 0.60375,0.06897 0.83649,-0.1273c4.83333,-4.11333 7.34667,-9.39667 7.54,-15.85c0.02667,-0.80667 -0.22333,-0.90667 -0.75,-0.3c-3.19333,3.7 -5.71667,7.92333 -7.57,12.67" id="Path 1"/></g><path d="M808.5,740h262v-55h-262zM853.25,724.136c0.02667,-0.368 0.05,-0.98 0.07,-1.836c0.01333,-0.952 0.58333,-1.48 1.71,-1.584c0.65243,-0.05903 1.2324,0.49565 1.33,1.272c0.42,3.312 0.44333,6.312 0.07,9c-0.19333,1.384 -0.55667,2.184 -1.09,2.4c-1.40396,0.55766 -2.92447,-0.29664 -3.46,-1.944c-1.18,-3.6 -2.8,-6.924 -3.75,-10.464c-2.4,-8.94 -5.09,-17.916 -7.17,-26.76c-3.06,-13.04 -6.13,-26.08 -9.21,-39.12c-1.76667,-7.48 -5.22,-23.9 -10.36,-49.26c-1.22,-6.024 -3.68,-13.572 -2.05,-19.776c2.11,-8.016 11.34,-4.464 15.61,-1.644c9.9,6.544 19.86,12.952 29.88,19.224c5.47333,3.432 11.24667,5.468 17.32,6.108c0.45044,0.04695 0.85635,0.34504 1.09616,0.80501c0.23981,0.45996 0.28567,1.02837 0.12384,1.53499c-1.83,5.688 -19.64,-4.464 -22.84,-6.3c-2.89,-1.668 -6.46,-4.416 -9.9,-6.288c-1,-0.552 -1.6,-1.416 -2.56,-2.076c-6.7,-4.548 -14.08,-9.9 -21.6,-12.072c-4.72,-1.368 -4.59,5.04 -4.14,8.16c0.52667,3.624 1.54333,9.06 3.05,16.308c5.67333,27.248 11.77667,54.356 18.31,81.324c2.58667,10.68 5.59667,21.704 9.03,33.072c0.26667,0.896 0.44333,0.868 0.53,-0.084zM904.25,636.272c1.6,7.968 3.72333,15.732 6.37,23.292c0.54,1.548 0.35,3.18 -1.17,3.492c-0.37369,0.081 -0.7514,-0.09013 -0.98,-0.444c-2.11,-3.276 -2.33,-7.224 -4,-10.68c-3.55333,-7.36 -8.22333,-14.476 -14.01,-21.348c-0.86667,-1.04 -1.77,-1.444 -2.71,-1.212c-0.34236,0.08096 -0.60326,0.40367 -0.65,0.804c-0.58,4.688 -0.37,9.316 0.63,13.884c0.32,1.448 0.23333,2.768 -0.26,3.96c-0.26168,0.63612 -0.7733,1.0707 -1.36024,1.15541c-0.58694,0.08471 -1.16984,-0.1919 -1.54976,-0.73541c-2.77,-3.972 -4.56,-8.376 -8.15,-11.856c-0.28006,-0.27389 -0.65746,-0.35583 -1.00146,-0.21742c-0.34399,0.13841 -0.60725,0.47811 -0.69854,0.90142c-0.89,4.14 0.25,8.46 1.98,12.78c0.53,1.32 0.28,2.628 -0.85,3.168c-0.32667,0.168 -0.63667,0.124 -0.93,-0.132c-3.31,-2.892 -5.35,-16.128 -2.04,-19.428c4.19,-4.164 8.1,2.748 10.49,5.904c0.28667,0.384 0.42,0.316 0.4,-0.204c-0.12,-3.624 -1.23,-11.328 2.07,-13.608c4.71,-3.252 12.31,9.072 14.95,12.78c0.35333,0.488 0.48667,0.412 0.4,-0.228c-0.31,-2.304 -1.14,-4.92 -1.35,-6.708c-0.24667,-2.032 -0.35667,-4.036 -0.33,-6.012c0.01213,-0.76839 0.3831,-1.46339 0.95968,-1.79793c0.57658,-0.33454 1.2609,-0.25185 1.77032,0.21393c0.68667,0.632 1.29,1.556 1.81,2.772c3.17333,7.448 6.69667,14.544 10.57,21.288c0.32,0.56 0.45333,0.504 0.4,-0.168c-0.29,-3.756 -0.53,-13.092 2.68,-15.444c4.3,-3.132 8.86,12.528 10.23,15.828c0.50667,1.232 0.79667,1.164 0.87,-0.204c0.11333,-2.08 0.55333,-4.268 1.32,-6.564c1.47,-4.392 5.51,-5.58 8.98,-3.708c2.51333,1.352 4.62333,3.132 6.33,5.34c0.14445,0.19419 0.3785,0.24532 0.57208,0.12497c0.19358,-0.12035 0.2991,-0.38258 0.25792,-0.64097l-2.67,-16.008c-0.20886,-1.21883 0.41352,-2.42327 1.42,-2.748c1.16667,-0.384 2.06,0.14 2.68,1.572c3.34,7.664 6.94,15.072 10.8,22.224c0.68,1.264 0.95667,1.148 0.83,-0.348c-0.26,-3.192 -0.33,-14.448 3.71,-15.168c2.34,-0.42 3.96,3.216 4.9,5.616c1.36,3.464 2.67333,6.732 3.94,9.804c0.86667,2.08 1.28667,1.956 1.26,-0.372c-0.02,-2.008 0.52,-4.112 1.62,-6.312c2.7,-5.412 6.96,-4.656 10.93,-1.8c1.34,0.96 2.36,2.676 3.94,3.624c0.12771,0.07864 0.28179,0.06156 0.39533,-0.04383c0.11353,-0.10539 0.16603,-0.28008 0.13467,-0.44817c-0.87,-5.172 1.52,-12.096 6.97,-8.892c1.9,1.116 3.48,4.272 5.13,6.336c0.38667,0.488 0.56,0.4 0.52,-0.264c-0.11333,-1.88 -0.24333,-3.736 -0.39,-5.568c-0.57,-7.02 3.94,-11.412 8.97,-6.132c4.28,4.488 8.04333,9.936 11.29,16.344c0.46667,0.928 0.91,0.912 1.33,-0.048c0.55,-1.248 0.69,-2.916 1.28,-4.26c1.72667,-3.904 4.1,-8.648 7.12,-14.232c0.78667,-1.464 1.29667,-3.296 1.53,-5.496c0.04472,-0.39192 -0.03792,-0.78427 -0.23,-1.092c-3.49,-5.604 -13.67,-22.944 -9.75,-27.744c1.97,-2.424 5.74,-0.516 7.38,1.476c5.94667,7.208 8.15333,15.996 6.62,26.364c-0.06,0.424 0.02333,0.8 0.25,1.128l21.42,30.396c0.41625,0.58894 0.40341,1.45716 -0.03,2.028l-0.24,0.3c-0.27723,0.36545 -0.6723,0.56973 -1.08406,0.56054c-0.41176,-0.00919 -0.80022,-0.23097 -1.06594,-0.60854l-20.45,-28.68c-0.02754,-0.03773 -0.06851,-0.05727 -0.11012,-0.05252c-0.04161,0.00476 -0.07877,0.03323 -0.09988,0.07652c-3.08,7.428 -11.57,19.284 -9.64,28.032c1.39,6.264 6.12,8.52 11.42,7.488c1.4,-0.276 2.16,0.636 1.96,2.292c-0.04667,0.4 -0.2,0.732 -0.46,0.996c-0.78,0.776 -1.70333,1.188 -2.77,1.236c-6.39333,0.264 -10.61,-2.784 -12.65,-9.144c-0.90667,-2.848 -1.63333,-4.776 -2.18,-5.784c-2.72,-5.04 -10.46,-18.384 -15.18,-20.088c-0.36,-0.128 -0.61333,0.016 -0.76,0.432c-1.38,3.852 -0.18,10.092 0.46,14.088c0.28,1.716 0.35,4.296 -1.11,5.292c-0.92667,0.624 -1.74333,0.296 -2.45,-0.984c-2.1,-3.808 -4.52667,-7.488 -7.28,-11.04c-0.50605,-0.65108 -1.34151,-0.7342 -1.93,-0.192c-0.18,0.16 -0.31333,0.672 -0.4,1.536c-0.42667,4.32 0.23,8.372 1.97,12.156c0.56667,1.232 0.41,2.128 -0.47,2.688c-0.74892,0.47948 -1.67417,0.25237 -2.2,-0.54c-2.83,-4.284 -9.21,-13.188 -14.33,-11.184c-0.31333,0.128 -0.54333,0.372 -0.69,0.732c-1.49,3.576 -1.42,6.708 -1.53,11.436c-0.04667,1.8 -0.68333,2.94 -1.91,3.42c-1.01452,0.39264 -2.11442,-0.15774 -2.59,-1.296l-7.62,-17.952c-0.43333,-1.024 -0.81333,-1.064 -1.14,-0.12c-1.27,3.696 -0.61,12.276 -0.51,16.332c0.02305,0.79276 -0.34045,1.52809 -0.93216,1.88569c-0.59171,0.3576 -1.30448,0.27271 -1.82784,-0.21769c-0.83333,-0.792 -1.63,-1.824 -2.39,-3.096c-3.03333,-5.072 -5.65333,-10.108 -7.86,-15.108c-0.82667,-1.864 -1.04667,-1.764 -0.66,0.3c1.28667,6.936 3.28,14.104 5.98,21.504c0.32,0.872 0.45667,1.568 0.41,2.088c-0.1,1.072 -0.69667,1.604 -1.79,1.596c-0.61185,0.00012 -1.16989,-0.41376 -1.44,-1.068c-0.75333,-1.872 -1.41333,-3.816 -1.98,-5.832c-0.51333,-1.824 -1.23333,-3.328 -2.16,-4.512c-3.2,-4.08 -5.31,-6.888 -9.65,-9.804c-6.57,-4.404 -6.16,8.688 -6.26,12.768c-0.04667,1.584 -0.67667,2.408 -1.89,2.472c-1.43,0.072 -2.6,-1.476 -3.24,-2.832c-2.12667,-4.48 -4.19,-9.6 -6.19,-15.36c-0.22,-0.648 -0.62667,-1.2 -1.22,-1.656c-0.28667,-0.224 -0.48667,-0.14 -0.6,0.252c-1.22,4.392 -0.57,11.676 -0.51,16.32c0.00819,0.6172 -0.19252,1.21201 -0.55626,1.64849c-0.36374,0.43648 -0.85941,0.67733 -1.37374,0.66751c-0.9,-0.024 -1.69667,-0.632 -2.39,-1.824c-3.38667,-5.832 -6.56,-11.836 -9.52,-18.012c-0.26,-0.544 -0.33,-0.508 -0.21,0.108z" id="CompoundPath 1" fill="#6c1b8e" stroke="none" stroke-width="1"/><path d="M853.25,423.22c-0.08667,-0.79333 -0.26333,-0.81667 -0.53,-0.07c-3.43333,9.47333 -6.44333,18.66 -9.03,27.56c-6.53333,22.47333 -12.63667,45.06333 -18.31,67.77c-1.50667,6.04 -2.52333,10.57 -3.05,13.59c-0.45,2.6 -0.58,7.94 4.14,6.8c7.52,-1.81 14.9,-6.27 21.6,-10.06c0.96,-0.55 1.56,-1.27 2.56,-1.73c3.44,-1.56 7.01,-3.85 9.9,-5.24c3.2,-1.53 21.01,-9.99 22.84,-5.25c0.16183,0.42218 0.11597,0.89586 -0.12384,1.27916c-0.23981,0.3833 -0.64572,0.63171 -1.09616,0.67084c-6.07333,0.53333 -11.84667,2.23 -17.32,5.09c-10.02,5.22667 -19.98,10.56667 -29.88,16.02c-4.27,2.35 -13.5,5.31 -15.61,-1.37c-1.63,-5.17 0.83,-11.46 2.05,-16.48c5.14,-21.13333 8.59333,-34.81667 10.36,-41.05c3.08,-10.86667 6.15,-21.73333 9.21,-32.6c2.08,-7.37 4.77,-14.85 7.17,-22.3c0.95,-2.95 2.57,-5.72 3.75,-8.72c0.53553,-1.3728 2.05604,-2.08472 3.46,-1.62c0.53333,0.18 0.89667,0.84667 1.09,2c0.37333,2.24 0.35,4.74 -0.07,7.5c-0.0976,0.64696 -0.67757,1.10919 -1.33,1.06c-1.12667,-0.08667 -1.69667,-0.52667 -1.71,-1.32c-0.02,-0.71333 -0.04333,-1.22333 -0.07,-1.53z" id="Path 1" fill="#ffffff" stroke="none" stroke-width="1"/><path d="M904.46,496.53c2.96,-5.14667 6.13333,-10.15 9.52,-15.01c0.69333,-0.99333 1.49,-1.5 2.39,-1.52c0.51433,-0.00819 1.01001,0.19252 1.37374,0.55626c0.36374,0.36374 0.56444,0.85941 0.55626,1.37374c-0.06,3.87 -0.71,9.94 0.51,13.6c0.11333,0.32667 0.31333,0.39667 0.6,0.21c0.59333,-0.38 1,-0.84 1.22,-1.38c2,-4.8 4.06333,-9.06667 6.19,-12.8c0.64,-1.13 1.81,-2.42 3.24,-2.36c1.21333,0.05333 1.84333,0.74 1.89,2.06c0.1,3.4 -0.31,14.31 6.26,10.64c4.34,-2.43 6.45,-4.77 9.65,-8.17c0.92667,-0.98667 1.64667,-2.24 2.16,-3.76c0.56667,-1.68 1.22667,-3.3 1.98,-4.86c0.27011,-0.5452 0.82815,-0.8901 1.44,-0.89c1.09333,-0.00667 1.69,0.43667 1.79,1.33c0.04667,0.43333 -0.09,1.01333 -0.41,1.74c-2.7,6.16667 -4.69333,12.14 -5.98,17.92c-0.38667,1.72 -0.16667,1.80333 0.66,0.25c2.20667,-4.16667 4.82667,-8.36333 7.86,-12.59c0.76,-1.06 1.55667,-1.92 2.39,-2.58c0.52336,-0.40866 1.23613,-0.47941 1.82784,-0.18141c0.59171,0.298 0.95521,0.91078 0.93216,1.57141c-0.1,3.38 -0.76,10.53 0.51,13.61c0.32667,0.78667 0.70667,0.75333 1.14,-0.1l7.62,-14.96c0.47558,-0.94855 1.57548,-1.4072 2.59,-1.08c1.22667,0.4 1.86333,1.35 1.91,2.85c0.11,3.94 0.04,6.55 1.53,9.53c0.14667,0.3 0.37667,0.50333 0.69,0.61c5.12,1.67 11.5,-5.75 14.33,-9.32c0.52583,-0.66031 1.45108,-0.84957 2.2,-0.45c0.88,0.46667 1.03667,1.21333 0.47,2.24c-1.74,3.15333 -2.39667,6.53 -1.97,10.13c0.08667,0.72 0.22,1.14667 0.4,1.28c0.58849,0.45183 1.42395,0.38257 1.93,-0.16c2.75333,-2.96 5.18,-6.02667 7.28,-9.2c0.70667,-1.06667 1.52333,-1.34 2.45,-0.82c1.46,0.83 1.39,2.98 1.11,4.41c-0.64,3.33 -1.84,8.53 -0.46,11.74c0.14667,0.34667 0.4,0.46667 0.76,0.36c4.72,-1.42 12.46,-12.54 15.18,-16.74c0.54667,-0.84 1.27333,-2.44667 2.18,-4.82c2.04,-5.3 6.25667,-7.84 12.65,-7.62c1.06667,0.04 1.99,0.38333 2.77,1.03c0.26,0.22 0.41333,0.49667 0.46,0.83c0.2,1.38 -0.56,2.14 -1.96,1.91c-5.3,-0.86 -10.03,1.02 -11.42,6.24c-1.93,7.29 6.56,17.17 9.64,23.36c0.02111,0.03607 0.05827,0.0598 0.09988,0.06376c0.04161,0.00396 0.08258,-0.01232 0.11012,-0.04376l20.45,-23.9c0.26571,-0.31464 0.65418,-0.49945 1.06594,-0.50711c0.41176,-0.00766 0.80683,0.16257 1.08406,0.46711l0.24,0.25c0.43341,0.4757 0.44625,1.19922 0.03,1.69l-21.42,25.33c-0.22667,0.27333 -0.31,0.58667 -0.25,0.94c1.53333,8.64 -0.67333,15.96333 -6.62,21.97c-1.64,1.66 -5.41,3.25 -7.38,1.23c-3.92,-4 6.26,-18.45 9.75,-23.12c0.19208,-0.25644 0.27472,-0.5834 0.23,-0.91c-0.23333,-1.83333 -0.74333,-3.36 -1.53,-4.58c-3.02,-4.65333 -5.39333,-8.60667 -7.12,-11.86c-0.59,-1.12 -0.73,-2.51 -1.28,-3.55c-0.42,-0.8 -0.86333,-0.81333 -1.33,-0.04c-3.24667,5.34 -7.01,9.88 -11.29,13.62c-5.03,4.4 -9.54,0.74 -8.97,-5.11c0.14667,-1.52667 0.27667,-3.07333 0.39,-4.64c0.04,-0.55333 -0.13333,-0.62667 -0.52,-0.22c-1.65,1.72 -3.23,4.35 -5.13,5.28c-5.45,2.67 -7.84,-3.1 -6.97,-7.41c0.03135,-0.14007 -0.02114,-0.28564 -0.13467,-0.37347c-0.11353,-0.08783 -0.26762,-0.10207 -0.39533,-0.03653c-1.58,0.79 -2.6,2.22 -3.94,3.02c-3.97,2.38 -8.23,3.01 -10.93,-1.5c-1.1,-1.83333 -1.64,-3.58667 -1.62,-5.26c0.02667,-1.94 -0.39333,-2.04333 -1.26,-0.31c-1.26667,2.56 -2.58,5.28333 -3.94,8.17c-0.94,2 -2.56,5.03 -4.9,4.68c-4.04,-0.6 -3.97,-9.98 -3.71,-12.64c0.12667,-1.24667 -0.15,-1.34333 -0.83,-0.29c-3.86,5.96 -7.46,12.13333 -10.8,18.52c-0.62,1.19333 -1.51333,1.63 -2.68,1.31c-1.00648,-0.27061 -1.62886,-1.2743 -1.42,-2.29l2.67,-13.34c0.04118,-0.21533 -0.06434,-0.43386 -0.25792,-0.53414c-0.19358,-0.10029 -0.42763,-0.05768 -0.57208,0.10414c-1.70667,1.84 -3.81667,3.32333 -6.33,4.45c-3.47,1.56 -7.51,0.57 -8.98,-3.09c-0.76667,-1.91333 -1.20667,-3.73667 -1.32,-5.47c-0.07333,-1.14 -0.36333,-1.19667 -0.87,-0.17c-1.37,2.75 -5.93,15.8 -10.23,13.19c-3.21,-1.96 -2.97,-9.74 -2.68,-12.87c0.05333,-0.56 -0.08,-0.60667 -0.4,-0.14c-3.87333,5.62 -7.39667,11.53333 -10.57,17.74c-0.52,1.01333 -1.12333,1.78333 -1.81,2.31c-0.50942,0.38815 -1.19374,0.45706 -1.77032,0.17827c-0.57658,-0.27878 -0.94755,-0.85795 -0.95968,-1.49827c-0.02667,-1.64667 0.08333,-3.31667 0.33,-5.01c0.21,-1.49 1.04,-3.67 1.35,-5.59c0.08667,-0.53333 -0.04667,-0.59667 -0.4,-0.19c-2.64,3.09 -10.24,13.36 -14.95,10.65c-3.3,-1.9 -2.19,-8.32 -2.07,-11.34c0.02,-0.43333 -0.11333,-0.49 -0.4,-0.17c-2.39,2.63 -6.3,8.39 -10.49,4.92c-3.31,-2.75 -1.27,-13.78 2.04,-16.19c0.29333,-0.21333 0.60333,-0.25 0.93,-0.11c1.13,0.45 1.38,1.54 0.85,2.64c-1.73,3.6 -2.87,7.2 -1.98,10.65c0.0913,0.35276 0.35455,0.63585 0.69854,0.75119c0.34399,0.11534 0.7214,0.04706 1.00146,-0.18119c3.59,-2.9 5.38,-6.57 8.15,-9.88c0.37991,-0.45293 0.96282,-0.68344 1.54976,-0.61284c0.58694,0.07059 1.09856,0.43275 1.36024,0.96284c0.49333,0.99333 0.58,2.09333 0.26,3.3c-1,3.80667 -1.21,7.66333 -0.63,11.57c0.04674,0.33361 0.30764,0.60254 0.65,0.67c0.94,0.19333 1.84333,-0.14333 2.71,-1.01c5.78667,-5.72667 10.45667,-11.65667 14.01,-17.79c1.67,-2.88 1.89,-6.17 4,-8.9c0.2286,-0.2949 0.60631,-0.4375 0.98,-0.37c1.52,0.26 1.71,1.62 1.17,2.91c-2.64667,6.3 -4.77,12.77 -6.37,19.41c-0.12,0.51333 -0.05,0.54333 0.21,0.09zM1027,528.13c-0.42,1.09333 -0.60333,2.06667 -0.55,2.92c0.02226,0.30364 0.21291,0.56915 0.49351,0.6873c0.2806,0.11815 0.60375,0.06897 0.83649,-0.1273c4.83333,-4.11333 7.34667,-9.39667 7.54,-15.85c0.02667,-0.80667 -0.22333,-0.90667 -0.75,-0.3c-3.19333,3.7 -5.71667,7.92333 -7.57,12.67z" id="CompoundPath 1" fill="#ffffff" stroke="none" stroke-width="1"/></g></g></g></svg>