<?xml version="1.0" encoding="utf-8"?>
<svg viewBox="177.4516 78.7256 241.0846 127.0085" xmlns="http://www.w3.org/2000/svg">
  <path d="M853.25,423.22c-0.08667,-0.79333 -0.26333,-0.81667 -0.53,-0.07c-3.43333,9.47333 -6.44333,18.66 -9.03,27.56c-6.53333,22.47333 -12.63667,45.06333 -18.31,67.77c-1.50667,6.04 -2.52333,10.57 -3.05,13.59c-0.45,2.6 -0.58,7.94 4.14,6.8c7.52,-1.81 14.9,-6.27 21.6,-10.06c0.96,-0.55 1.56,-1.27 2.56,-1.73c3.44,-1.56 7.01,-3.85 9.9,-5.24c3.2,-1.53 21.01,-9.99 22.84,-5.25c0.16183,0.42218 0.11597,0.89586 -0.12384,1.27916c-0.23981,0.3833 -0.64572,0.63171 -1.09616,0.67084c-6.07333,0.53333 -11.84667,2.23 -17.32,5.09c-10.02,5.22667 -19.98,10.56667 -29.88,16.02c-4.27,2.35 -13.5,5.31 -15.61,-1.37c-1.63,-5.17 0.83,-11.46 2.05,-16.48c5.14,-21.13333 8.59333,-34.81667 10.36,-41.05c3.08,-10.86667 6.15,-21.73333 9.21,-32.6c2.08,-7.37 4.77,-14.85 7.17,-22.3c0.95,-2.95 2.57,-5.72 3.75,-8.72c0.53553,-1.3728 2.05604,-2.08472 3.46,-1.62c0.53333,0.18 0.89667,0.84667 1.09,2c0.37333,2.24 0.35,4.74 -0.07,7.5c-0.0976,0.64696 -0.67757,1.10919 -1.33,1.06c-1.12667,-0.08667 -1.69667,-0.52667 -1.71,-1.32c-0.02,-0.71333 -0.04333,-1.22333 -0.07,-1.53z" id="Path 1" stroke-width="1" style="paint-order: fill; stroke: rgb(255, 255, 255); fill: rgb(255, 255, 255);" transform="matrix(1, 0, 0, 1, -641.3477172851562, -336.6426086425781)"/>
  <path d="M904.46,496.53c2.96,-5.14667 6.13333,-10.15 9.52,-15.01c0.69333,-0.99333 1.49,-1.5 2.39,-1.52c0.51433,-0.00819 1.01001,0.19252 1.37374,0.55626c0.36374,0.36374 0.56444,0.85941 0.55626,1.37374c-0.06,3.87 -0.71,9.94 0.51,13.6c0.11333,0.32667 0.31333,0.39667 0.6,0.21c0.59333,-0.38 1,-0.84 1.22,-1.38c2,-4.8 4.06333,-9.06667 6.19,-12.8c0.64,-1.13 1.81,-2.42 3.24,-2.36c1.21333,0.05333 1.84333,0.74 1.89,2.06c0.1,3.4 -0.31,14.31 6.26,10.64c4.34,-2.43 6.45,-4.77 9.65,-8.17c0.92667,-0.98667 1.64667,-2.24 2.16,-3.76c0.56667,-1.68 1.22667,-3.3 1.98,-4.86c0.27011,-0.5452 0.82815,-0.8901 1.44,-0.89c1.09333,-0.00667 1.69,0.43667 1.79,1.33c0.04667,0.43333 -0.09,1.01333 -0.41,1.74c-2.7,6.16667 -4.69333,12.14 -5.98,17.92c-0.38667,1.72 -0.16667,1.80333 0.66,0.25c2.20667,-4.16667 4.82667,-8.36333 7.86,-12.59c0.76,-1.06 1.55667,-1.92 2.39,-2.58c0.52336,-0.40866 1.23613,-0.47941 1.82784,-0.18141c0.59171,0.298 0.95521,0.91078 0.93216,1.57141c-0.1,3.38 -0.76,10.53 0.51,13.61c0.32667,0.78667 0.70667,0.75333 1.14,-0.1l7.62,-14.96c0.47558,-0.94855 1.57548,-1.4072 2.59,-1.08c1.22667,0.4 1.86333,1.35 1.91,2.85c0.11,3.94 0.04,6.55 1.53,9.53c0.14667,0.3 0.37667,0.50333 0.69,0.61c5.12,1.67 11.5,-5.75 14.33,-9.32c0.52583,-0.66031 1.45108,-0.84957 2.2,-0.45c0.88,0.46667 1.03667,1.21333 0.47,2.24c-1.74,3.15333 -2.39667,6.53 -1.97,10.13c0.08667,0.72 0.22,1.14667 0.4,1.28c0.58849,0.45183 1.42395,0.38257 1.93,-0.16c2.75333,-2.96 5.18,-6.02667 7.28,-9.2c0.70667,-1.06667 1.52333,-1.34 2.45,-0.82c1.46,0.83 1.39,2.98 1.11,4.41c-0.64,3.33 -1.84,8.53 -0.46,11.74c0.14667,0.34667 0.4,0.46667 0.76,0.36c4.72,-1.42 12.46,-12.54 15.18,-16.74c0.54667,-0.84 1.27333,-2.44667 2.18,-4.82c2.04,-5.3 6.25667,-7.84 12.65,-7.62c1.06667,0.04 1.99,0.38333 2.77,1.03c0.26,0.22 0.41333,0.49667 0.46,0.83c0.2,1.38 -0.56,2.14 -1.96,1.91c-5.3,-0.86 -10.03,1.02 -11.42,6.24c-1.93,7.29 6.56,17.17 9.64,23.36c0.02111,0.03607 0.05827,0.0598 0.09988,0.06376c0.04161,0.00396 0.08258,-0.01232 0.11012,-0.04376l20.45,-23.9c0.26571,-0.31464 0.65418,-0.49945 1.06594,-0.50711c0.41176,-0.00766 0.80683,0.16257 1.08406,0.46711l0.24,0.25c0.43341,0.4757 0.44625,1.19922 0.03,1.69l-21.42,25.33c-0.22667,0.27333 -0.31,0.58667 -0.25,0.94c1.53333,8.64 -0.67333,15.96333 -6.62,21.97c-1.64,1.66 -5.41,3.25 -7.38,1.23c-3.92,-4 6.26,-18.45 9.75,-23.12c0.19208,-0.25644 0.27472,-0.5834 0.23,-0.91c-0.23333,-1.83333 -0.74333,-3.36 -1.53,-4.58c-3.02,-4.65333 -5.39333,-8.60667 -7.12,-11.86c-0.59,-1.12 -0.73,-2.51 -1.28,-3.55c-0.42,-0.8 -0.86333,-0.81333 -1.33,-0.04c-3.24667,5.34 -7.01,9.88 -11.29,13.62c-5.03,4.4 -9.54,0.74 -8.97,-5.11c0.14667,-1.52667 0.27667,-3.07333 0.39,-4.64c0.04,-0.55333 -0.13333,-0.62667 -0.52,-0.22c-1.65,1.72 -3.23,4.35 -5.13,5.28c-5.45,2.67 -7.84,-3.1 -6.97,-7.41c0.03135,-0.14007 -0.02114,-0.28564 -0.13467,-0.37347c-0.11353,-0.08783 -0.26762,-0.10207 -0.39533,-0.03653c-1.58,0.79 -2.6,2.22 -3.94,3.02c-3.97,2.38 -8.23,3.01 -10.93,-1.5c-1.1,-1.83333 -1.64,-3.58667 -1.62,-5.26c0.02667,-1.94 -0.39333,-2.04333 -1.26,-0.31c-1.26667,2.56 -2.58,5.28333 -3.94,8.17c-0.94,2 -2.56,5.03 -4.9,4.68c-4.04,-0.6 -3.97,-9.98 -3.71,-12.64c0.12667,-1.24667 -0.15,-1.34333 -0.83,-0.29c-3.86,5.96 -7.46,12.13333 -10.8,18.52c-0.62,1.19333 -1.51333,1.63 -2.68,1.31c-1.00648,-0.27061 -1.62886,-1.2743 -1.42,-2.29l2.67,-13.34c0.04118,-0.21533 -0.06434,-0.43386 -0.25792,-0.53414c-0.19358,-0.10029 -0.42763,-0.05768 -0.57208,0.10414c-1.70667,1.84 -3.81667,3.32333 -6.33,4.45c-3.47,1.56 -7.51,0.57 -8.98,-3.09c-0.76667,-1.91333 -1.20667,-3.73667 -1.32,-5.47c-0.07333,-1.14 -0.36333,-1.19667 -0.87,-0.17c-1.37,2.75 -5.93,15.8 -10.23,13.19c-3.21,-1.96 -2.97,-9.74 -2.68,-12.87c0.05333,-0.56 -0.08,-0.60667 -0.4,-0.14c-3.87333,5.62 -7.39667,11.53333 -10.57,17.74c-0.52,1.01333 -1.12333,1.78333 -1.81,2.31c-0.50942,0.38815 -1.19374,0.45706 -1.77032,0.17827c-0.57658,-0.27878 -0.94755,-0.85795 -0.95968,-1.49827c-0.02667,-1.64667 0.08333,-3.31667 0.33,-5.01c0.21,-1.49 1.04,-3.67 1.35,-5.59c0.08667,-0.53333 -0.04667,-0.59667 -0.4,-0.19c-2.64,3.09 -10.24,13.36 -14.95,10.65c-3.3,-1.9 -2.19,-8.32 -2.07,-11.34c0.02,-0.43333 -0.11333,-0.49 -0.4,-0.17c-2.39,2.63 -6.3,8.39 -10.49,4.92c-3.31,-2.75 -1.27,-13.78 2.04,-16.19c0.29333,-0.21333 0.60333,-0.25 0.93,-0.11c1.13,0.45 1.38,1.54 0.85,2.64c-1.73,3.6 -2.87,7.2 -1.98,10.65c0.0913,0.35276 0.35455,0.63585 0.69854,0.75119c0.34399,0.11534 0.7214,0.04706 1.00146,-0.18119c3.59,-2.9 5.38,-6.57 8.15,-9.88c0.37991,-0.45293 0.96282,-0.68344 1.54976,-0.61284c0.58694,0.07059 1.09856,0.43275 1.36024,0.96284c0.49333,0.99333 0.58,2.09333 0.26,3.3c-1,3.80667 -1.21,7.66333 -0.63,11.57c0.04674,0.33361 0.30764,0.60254 0.65,0.67c0.94,0.19333 1.84333,-0.14333 2.71,-1.01c5.78667,-5.72667 10.45667,-11.65667 14.01,-17.79c1.67,-2.88 1.89,-6.17 4,-8.9c0.2286,-0.2949 0.60631,-0.4375 0.98,-0.37c1.52,0.26 1.71,1.62 1.17,2.91c-2.64667,6.3 -4.77,12.77 -6.37,19.41c-0.12,0.51333 -0.05,0.54333 0.21,0.09zM1027,528.13c-0.42,1.09333 -0.60333,2.06667 -0.55,2.92c0.02226,0.30364 0.21291,0.56915 0.49351,0.6873c0.2806,0.11815 0.60375,0.06897 0.83649,-0.1273c4.83333,-4.11333 7.34667,-9.39667 7.54,-15.85c0.02667,-0.80667 -0.22333,-0.90667 -0.75,-0.3c-3.19333,3.7 -5.71667,7.92333 -7.57,12.67z" id="CompoundPath 1" stroke-width="1" style="paint-order: fill; stroke: rgb(255, 255, 255); fill: rgb(255, 255, 255);" transform="matrix(1, 0, 0, 1, -641.3477172851562, -336.6426086425781)"/>
</svg>