<?xml version="1.0" encoding="UTF-8" standalone="no"?>
<!DOCTYPE svg PUBLIC "-//W3C//DTD SVG 1.1//EN" "http://www.w3.org/Graphics/SVG/1.1/DTD/svg11.dtd">
<svg xmlns="http://www.w3.org/2000/svg" version="1.1" viewBox="0.00 0.00 350.00 200.00">
<path fill="#8c0fc7" d="
  M 25.42 176.62
  Q 29.65 177.50 33.67 175.63
  Q 41.43 172.00 48.95 167.86
  Q 66.24 158.37 72.68 155.17
  C 75.21 153.92 102.39 141.51 102.07 150.15
  C 101.94 153.67 96.02 152.87 93.61 153.44
  Q 84.02 155.69 73.97 160.94
  Q 62.99 166.69 48.75 175.19
  C 42.25 179.07 21.27 191.27 17.39 177.52
  Q 16.40 174.01 16.96 171.00
  Q 17.58 167.64 18.27 164.30
  Q 21.13 150.45 24.70 136.76
  Q 31.07 112.33 37.84 88.02
  C 38.29 86.42 39.08 84.75 39.59 83.05
  C 45.17 64.48 50.20 45.93 56.98 27.73
  C 57.87 25.33 61.31 15.51 65.43 18.08
  C 67.88 19.61 67.67 26.52 67.35 28.51
  Q 66.70 32.48 63.12 32.39
  A 1.94 1.93 -78.0 0 0 61.29 33.58
  C 54.14 50.86 48.61 68.30 44.77 86.34
  Q 43.80 90.91 42.57 95.43
  Q 41.15 100.69 39.85 105.99
  C 39.38 107.91 38.03 111.47 37.53 114.29
  C 36.77 118.65 35.11 123.01 33.80 127.25
  C 33.37 128.62 33.39 130.60 32.89 132.21
  Q 28.94 144.97 25.95 158.00
  C 24.91 162.52 22.16 173.24 24.61 176.15
  Q 24.93 176.52 25.42 176.62
  Z"
/>
<path fill="#8c0fc7" d="
  M 207.43 113.94
  Q 209.49 114.42 210.47 112.90
  C 210.81 112.36 210.79 111.28 211.49 110.70
  Q 211.88 110.37 212.11 109.92
  C 213.33 107.43 218.17 97.33 222.25 101.35
  C 223.60 102.68 223.39 104.60 223.75 106.28
  C 224.49 109.69 223.69 112.73 225.80 115.44
  Q 227.59 117.74 231.20 116.39
  C 235.78 114.68 239.40 110.28 243.41 105.66
  C 245.81 102.89 249.82 105.31 249.09 109.00
  Q 248.75 110.70 247.78 113.00
  C 246.99 114.88 247.19 116.54 247.10 118.50
  Q 247.08 118.98 247.56 118.98
  L 248.95 118.97
  Q 249.40 118.97 249.72 118.64
  Q 251.77 116.56 253.73 114.38
  C 254.86 113.13 255.96 110.57 257.48 109.70
  C 262.84 106.62 263.91 111.89 263.44 115.74
  Q 262.73 121.57 263.15 127.43
  Q 263.19 128.05 263.81 128.09
  Q 266.23 128.27 268.56 125.79
  C 275.15 118.79 280.93 111.76 284.80 102.54
  C 287.58 95.90 298.57 89.08 305.44 94.01
  A 1.92 1.91 -65.4 0 1 306.18 96.01
  C 305.73 97.87 304.82 98.00 303.04 97.85
  Q 294.07 97.09 290.44 105.02
  C 288.23 109.84 290.03 113.99 292.48 118.99
  Q 295.78 125.73 300.54 131.59
  A 1.01 1.00 -19.3 0 0 301.32 131.96
  L 303.60 131.96
  Q 304.16 131.96 304.55 131.55
  C 312.61 123.33 319.85 114.39 328.11 105.11
  A 2.08 2.07 42.3 0 1 331.08 104.98
  L 331.54 105.42
  A 2.77 2.76 -48.1 0 1 331.74 109.25
  C 322.20 120.31 313.45 131.04 305.49 141.80
  A 1.44 1.42 -29.1 0 0 305.21 142.76
  Q 305.58 148.53 305.05 152.24
  C 303.88 160.43 299.22 170.06 291.29 173.37
  C 285.22 175.91 282.98 170.64 283.99 165.50
  C 285.45 158.16 290.54 151.05 294.43 144.35
  Q 295.83 141.93 295.76 139.75
  C 295.56 133.21 288.86 124.25 285.44 118.79
  A 1.35 1.34 -36.7 0 0 283.40 118.50
  C 278.13 123.15 272.53 131.18 268.03 133.97
  C 260.88 138.42 257.97 134.97 255.92 128.27
  Q 254.95 125.07 251.99 126.77
  Q 245.34 130.57 241.71 124.15
  C 240.66 122.29 240.49 119.20 237.31 120.50
  C 232.47 122.49 226.59 124.84 221.95 120.79
  C 220.70 119.69 220.11 118.09 219.15 116.80
  A 2.26 2.26 0.0 0 0 215.24 117.30
  C 214.17 119.95 210.75 126.51 207.81 127.62
  C 202.51 129.62 200.46 121.68 199.74 118.43
  Q 199.64 117.98 199.18 117.99
  L 197.09 118.04
  Q 196.49 118.05 196.15 118.55
  Q 192.76 123.56 186.03 135.51
  Q 184.98 137.37 183.02 137.17
  C 180.57 136.91 179.95 134.30 180.21 132.25
  Q 180.94 126.39 180.99 120.64
  A 0.69 0.69 0.0 0 0 180.01 120.00
  C 177.33 121.20 174.35 122.62 171.52 122.72
  Q 164.32 122.97 162.02 116.20
  A 2.21 2.21 0.0 0 0 157.93 115.95
  Q 155.99 119.97 153.21 124.20
  C 148.12 131.94 142.87 124.64 142.64 119.00
  Q 142.53 116.17 140.48 116.13
  A 1.30 1.29 -73.2 0 0 139.37 116.73
  Q 133.88 125.53 128.15 134.72
  Q 127.19 136.27 125.54 136.89
  A 1.10 1.09 53.1 0 1 124.50 136.74
  Q 122.34 135.09 122.50 132.24
  Q 122.54 131.69 122.25 131.23
  Q 121.79 130.46 121.97 129.53
  Q 122.08 128.95 121.49 128.98
  L 119.34 129.07
  Q 118.83 129.09 118.49 129.45
  Q 115.88 132.21 111.32 134.83
  C 104.56 138.71 101.43 132.21 100.64 126.85
  Q 100.58 126.43 100.18 126.28
  Q 98.26 125.57 97.24 126.26
  C 93.68 128.68 89.35 129.17 86.76 125.72
  C 83.54 121.42 84.59 114.10 86.66 109.21
  C 87.52 107.18 89.24 104.05 91.81 104.51
  C 95.70 105.19 92.93 111.89 91.63 114.74
  Q 90.90 116.35 91.37 119.43
  Q 91.44 119.87 91.87 119.95
  C 93.54 120.28 94.55 120.13 95.56 118.64
  C 97.59 115.67 102.87 107.42 106.49 109.46
  C 108.51 110.59 108.50 113.21 108.26 115.25
  Q 107.69 120.17 107.53 125.13
  C 107.40 129.01 110.48 128.55 112.43 126.62
  C 119.03 120.04 126.53 111.32 130.24 102.72
  C 131.33 100.20 132.55 96.14 134.98 94.67
  Q 135.41 94.40 135.92 94.50
  Q 138.29 94.97 137.85 97.51
  C 137.38 100.28 134.94 104.32 135.12 108.41
  Q 135.14 108.88 135.60 108.98
  Q 137.66 109.40 138.61 107.45
  C 140.09 104.42 144.78 98.09 147.49 103.51
  C 148.66 105.86 148.05 111.53 148.30 114.34
  Q 148.36 115.02 149.04 115.00
  L 151.55 114.93
  A 0.87 0.87 0.0 0 0 152.32 114.43
  C 153.54 111.89 160.12 96.90 164.56 101.97
  C 166.08 103.70 165.86 108.17 166.24 110.37
  C 167.13 115.44 168.72 119.57 174.57 115.59
  C 179.74 112.07 185.38 107.09 188.24 101.44
  C 189.36 99.23 191.05 92.59 194.83 94.22
  C 197.58 95.40 195.98 100.06 195.98 102.35
  Q 195.98 102.80 196.41 102.93
  Q 198.11 103.44 199.08 102.13
  Q 199.31 101.83 199.68 101.74
  Q 199.93 101.68 200.11 101.55
  C 203.68 99.03 206.27 103.16 206.50 106.51
  C 206.66 108.83 207.24 110.92 206.99 113.31
  Q 206.94 113.82 207.43 113.94
  Z"
/>
</svg>
