<?xml version="1.0" standalone="no"?>
<!DOCTYPE svg PUBLIC "-//W3C//DTD SVG 20010904//EN"
 "http://www.w3.org/TR/2001/REC-SVG-20010904/DTD/svg10.dtd">
<svg version="1.0" xmlns="http://www.w3.org/2000/svg"
 width="1756.000000pt" height="1756.000000pt" viewBox="0 0 1756.000000 1756.000000"
 preserveAspectRatio="xMidYMid meet">
<metadata>
Created by potrace 1.14, written by Peter Selinger 2001-2017
</metadata>
<g transform="translate(0.000000,1756.000000) scale(0.100000,-0.100000)"
fill="#000000" stroke="none">
<path d="M8260 17549 c-950 -59 -1871 -264 -2738 -610 -2227 -890 -4011 -2674
-4901 -4901 -324 -812 -515 -1627 -598 -2553 -25 -288 -25 -1122 0 -1410 106
-1182 392 -2206 901 -3224 911 -1818 2431 -3272 4286 -4098 783 -349 1611
-579 2473 -688 412 -52 557 -60 1097 -60 540 0 685 8 1097 60 2914 368 5444
2160 6759 4786 469 938 758 1916 873 2954 41 367 46 481 46 975 0 494 -5 608
-46 975 -87 785 -278 1552 -570 2283 -890 2227 -2674 4011 -4901 4901 -876
350 -1791 552 -2758 611 -188 11 -833 11 -1020 -1z m720 -2088 c0 -11 4 -22
10 -26 5 -3 9 -18 9 -33 0 -15 2 -83 5 -152 5 -129 -9 -240 -31 -247 -24 -8
-41 151 -31 302 6 95 9 122 17 168 3 16 21 6 21 -12z m38 -979 c-13 -9 -26
-20 -29 -25 -9 -13 -92 -2 -97 12 -2 6 -10 11 -17 11 -8 0 -17 5 -20 10 -5 7
25 10 90 9 91 -1 95 -2 73 -17z m-728 -67 c191 -8 827 -8 838 -1 4 3 57 6 118
7 96 1 109 -1 106 -15 -2 -9 22 -45 53 -79 31 -34 68 -83 81 -109 22 -43 24
-59 24 -180 -1 -244 22 -306 234 -638 172 -268 289 -536 332 -760 22 -116 19
-384 -6 -508 -107 -532 -458 -914 -1005 -1093 -101 -33 -204 -50 -347 -56
-272 -12 -485 38 -748 174 -481 250 -771 754 -747 1301 12 290 128 598 362
962 196 305 227 395 222 635 -2 140 5 160 97 263 31 35 54 68 50 73 -3 6 -3
17 0 25 5 13 21 15 93 10 49 -3 158 -8 243 -11z m-2645 -4031 c36 -14 48 -63
47 -197 -2 -154 -11 -181 -63 -185 -45 -4 -57 10 -61 73 l-3 50 -33 -68 c-58
-123 -223 -628 -380 -1162 -218 -740 -645 -2358 -733 -2780 -26 -125 -31 -273
-11 -321 28 -66 113 -76 252 -29 106 35 429 196 707 354 378 214 587 320 798
404 122 49 308 96 409 103 76 6 85 5 105 -15 26 -26 27 -42 4 -69 -14 -17 -37
-23 -113 -31 -175 -19 -344 -76 -605 -201 -128 -61 -232 -117 -745 -405 -417
-234 -646 -314 -788 -276 -60 17 -124 82 -143 146 -21 75 -15 210 16 360 151
724 792 3055 1026 3730 153 444 220 555 314 519z m6923 -2195 c36 -15 42 -22
42 -47 0 -16 -9 -37 -20 -47 -18 -16 -25 -17 -80 -5 -207 44 -396 -107 -408
-326 -7 -126 47 -258 210 -519 52 -82 111 -180 132 -217 21 -38 41 -68 44 -67
4 0 63 68 132 151 148 179 484 571 582 681 61 67 74 77 104 77 34 0 54 -20 54
-54 0 -8 -93 -124 -208 -258 -364 -426 -477 -561 -551 -657 l-72 -94 8 -61
c12 -94 7 -254 -11 -329 -70 -298 -312 -564 -469 -517 -161 48 -69 344 247
798 47 68 86 131 86 140 0 36 -71 177 -156 309 -96 150 -204 353 -225 421 -6
23 -16 42 -20 42 -4 0 -31 -33 -60 -72 -332 -453 -557 -620 -672 -500 -47 49
-59 102 -58 256 0 76 3 148 6 160 5 16 -1 13 -26 -14 -18 -19 -49 -53 -69 -75
-134 -147 -219 -177 -301 -108 -51 43 -71 96 -78 205 l-6 97 -80 -60 c-118
-89 -194 -123 -281 -127 -57 -3 -79 0 -111 16 -84 43 -134 135 -156 284 -6 45
-16 77 -22 75 -5 -2 -59 -101 -119 -221 -125 -253 -166 -306 -235 -306 -53 0
-94 36 -119 103 -27 74 -34 114 -41 262 l-6 130 -37 -50 c-57 -78 -206 -324
-303 -500 -100 -184 -125 -215 -171 -215 -83 0 -84 91 -3 435 22 94 42 176 44
183 6 17 -2 12 -103 -65 -123 -94 -191 -125 -283 -131 -62 -4 -82 -1 -116 17
-82 42 -134 136 -156 283 -6 45 -16 77 -22 75 -5 -2 -60 -103 -121 -226 -126
-253 -154 -290 -228 -298 -43 -5 -48 -3 -80 30 -19 20 -42 58 -50 85 -20 59
-36 190 -36 295 0 55 -3 76 -11 71 -30 -18 -291 -450 -383 -631 -49 -97 -77
-125 -123 -121 -72 6 -78 72 -28 322 14 71 24 133 23 138 -2 5 -44 -38 -93
-97 -265 -317 -453 -397 -536 -228 -22 45 -24 59 -23 214 l0 165 -63 -72 c-89
-102 -146 -149 -197 -164 -78 -22 -138 6 -178 83 -30 57 -37 213 -14 310 20
86 71 209 96 232 26 24 71 16 89 -17 14 -24 13 -31 -22 -106 -66 -139 -84
-317 -38 -373 16 -21 19 -21 48 -5 38 19 128 119 206 229 110 154 158 186 207
137 26 -26 26 -66 0 -240 -33 -224 -24 -360 24 -360 35 0 102 50 197 147 119
121 256 301 431 567 4 6 24 56 44 111 61 169 89 223 117 230 14 4 35 2 46 -4
39 -21 36 -52 -22 -198 -83 -209 -200 -594 -184 -609 3 -3 50 68 106 157 111
177 240 366 282 411 33 34 77 37 105 7 17 -19 19 -43 24 -278 5 -250 12 -301
40 -301 5 0 61 105 124 233 164 334 206 392 277 385 58 -6 71 -37 80 -196 13
-259 78 -337 226 -272 90 40 182 116 350 291 61 64 76 87 102 155 56 152 87
213 114 219 32 8 65 -9 72 -38 4 -14 -14 -74 -48 -162 -90 -230 -195 -576
-185 -607 2 -6 33 36 68 93 94 153 280 427 316 466 37 39 81 44 110 12 17 -19
20 -44 25 -278 6 -242 12 -301 29 -301 17 0 43 47 143 250 154 315 197 375
268 368 57 -5 70 -36 80 -194 8 -142 15 -178 42 -230 25 -48 52 -66 96 -66 91
1 201 75 382 256 104 104 131 126 155 126 60 0 70 -48 28 -131 -54 -107 -80
-281 -53 -358 27 -76 100 -20 270 206 55 73 108 137 119 143 45 24 89 4 104
-47 4 -12 -3 -89 -14 -170 -24 -164 -29 -323 -12 -365 7 -16 19 -28 30 -28 54
0 208 139 351 320 125 157 275 387 300 460 38 113 137 226 241 273 101 46 232
53 318 16z m-5937 -3266 c11 -13 14 -86 14 -376 0 -255 3 -361 11 -364 6 -2
31 12 54 32 72 60 116 78 205 83 73 3 85 1 135 -25 110 -57 148 -170 117 -354
-40 -240 -175 -381 -351 -367 -109 9 -187 69 -242 186 -49 104 -56 162 -61
522 -6 387 7 632 33 661 21 23 67 25 85 2z m1008 -82 c27 -27 36 -83 22 -134
-7 -23 -16 -186 -22 -362 -25 -814 -22 -761 -43 -784 -23 -25 -44 -27 -74 -5
l-23 16 6 481 c4 265 10 545 15 622 8 134 10 141 35 162 32 28 59 29 84 4z
m2813 7 c25 -20 27 -66 16 -327 -17 -387 14 -795 67 -907 31 -64 31 -89 1
-109 -22 -14 -28 -15 -60 -1 -63 26 -95 121 -119 355 -7 63 -16 116 -22 117
-5 2 -25 -36 -44 -84 -81 -209 -192 -314 -336 -316 -144 -1 -237 113 -237 293
0 119 34 204 110 280 88 88 202 119 317 86 106 -30 114 -30 123 -4 17 45 62
286 81 438 14 109 25 159 37 172 20 22 43 24 66 7z m2039 -9 c21 -21 21 -25
13 -243 -19 -473 10 -901 66 -992 27 -43 26 -80 -4 -100 -23 -14 -28 -14 -60
1 -62 29 -94 128 -116 355 -7 63 -13 117 -15 119 -10 9 -25 -14 -40 -62 -26
-80 -84 -183 -131 -236 -125 -140 -317 -142 -404 -5 -62 98 -67 250 -13 366
80 171 244 241 431 184 45 -14 66 -16 74 -8 16 16 65 262 88 438 11 86 25 164
30 174 18 34 52 38 81 9z m-4376 -220 c28 -25 35 -38 35 -67 0 -62 -56 -98
-115 -76 -43 17 -60 119 -25 154 29 29 64 25 105 -11z m1290 0 c28 -25 35 -38
35 -67 0 -62 -56 -98 -115 -76 -43 17 -60 119 -25 154 29 29 64 25 105 -11z
m-4429 10 c188 -34 330 -175 342 -339 8 -112 -37 -227 -112 -283 -69 -54 -225
-117 -323 -132 -24 -4 -45 -10 -47 -14 -3 -4 0 -73 7 -153 7 -79 10 -156 7
-169 -3 -13 -18 -30 -32 -38 -33 -19 -74 -3 -87 33 -21 52 -43 395 -48 716 -4
282 -3 338 10 354 24 33 171 46 283 25z m6441 -279 c7 -19 12 -80 13 -135 1
-137 18 -378 31 -445 6 -30 19 -70 30 -88 35 -61 21 -112 -32 -112 -62 0 -107
75 -131 219 -8 47 -19 86 -25 88 -6 2 -27 -27 -48 -64 -96 -176 -205 -245
-333 -214 -138 35 -204 167 -169 337 19 87 51 154 105 215 43 48 133 102 192
114 64 14 146 7 190 -15 22 -11 44 -18 49 -16 4 3 11 31 15 63 8 69 28 95 70
91 25 -2 33 -10 43 -38z m-2548 -46 c126 -53 168 -224 55 -224 -25 0 -38 7
-56 31 -61 82 -76 92 -124 86 -118 -13 -192 -137 -182 -302 6 -93 37 -158 96
-199 75 -53 208 -46 284 15 40 32 57 36 76 17 39 -39 -12 -119 -100 -159 -45
-20 -69 -24 -158 -24 -115 0 -152 12 -225 76 -76 67 -123 230 -104 366 28 200
189 355 353 337 27 -3 65 -12 85 -20z m4385 -5 c56 -29 98 -85 109 -147 18
-92 -59 -204 -181 -264 -55 -28 -80 -34 -149 -37 -82 -3 -83 -3 -83 -30 1 -42
43 -114 86 -144 27 -19 57 -30 95 -34 47 -4 61 -1 113 26 52 28 61 30 85 18
19 -9 27 -21 29 -45 7 -71 -111 -130 -235 -119 -177 17 -286 139 -308 344 -20
184 103 385 269 439 45 15 134 11 170 -7z m-5134 -54 c14 -17 14 -39 5 -225
-8 -158 5 -288 35 -355 20 -43 20 -48 5 -71 -36 -56 -122 -11 -145 77 -25 93
-39 483 -20 536 6 15 18 34 27 41 23 17 78 15 93 -3z m1290 0 c14 -17 14 -39
5 -225 -8 -158 5 -288 35 -355 20 -43 20 -48 5 -71 -36 -56 -122 -11 -145 77
-25 93 -39 483 -20 536 6 15 18 34 27 41 23 17 78 15 93 -3z m-3724 -23 c35
-23 44 -96 19 -155 -24 -58 -13 -262 17 -325 47 -98 150 34 238 303 49 149 67
175 121 175 63 0 70 -19 62 -179 -10 -228 19 -331 93 -331 85 0 100 -93 19
-120 -105 -35 -195 38 -225 183 -6 31 -14 57 -18 57 -4 0 -18 -21 -32 -47 -33
-63 -114 -150 -163 -175 -70 -35 -149 -14 -199 53 -36 48 -48 125 -48 306 0
171 6 211 37 245 16 18 59 24 79 10z"/>
<path d="M12368 6579 c-100 -141 -200 -319 -244 -437 -24 -62 -32 -132 -16
-132 5 0 30 14 56 31 88 58 176 190 225 337 24 70 41 205 31 241 -6 23 -9 21
-52 -40z"/>
<path d="M6899 4172 c-53 -6 -132 -64 -167 -122 -71 -119 -77 -211 -19 -297
81 -121 214 -105 289 34 25 46 58 184 58 244 0 42 -29 108 -53 121 -29 15 -76
24 -108 20z"/>
<path d="M9984 4101 c-81 -37 -137 -141 -137 -251 0 -155 128 -203 231 -86 61
70 132 221 132 282 0 52 -152 89 -226 55z"/>
<path d="M12009 4097 c-49 -26 -102 -95 -119 -155 -14 -52 -12 -137 4 -176 26
-62 92 -84 155 -52 65 34 148 163 185 286 15 51 15 55 -1 72 -18 17 -119 48
-159 48 -11 0 -41 -10 -65 -23z"/>
<path d="M4824 4505 c-15 -11 -17 -35 -12 -245 5 -177 9 -235 19 -245 22 -20
121 6 226 59 82 41 93 50 113 91 18 37 21 59 18 109 -5 77 -37 130 -107 176
-74 49 -222 81 -257 55z"/>
<path d="M11073 4150 c-68 -15 -123 -68 -164 -158 -51 -108 -49 -230 4 -267
64 -45 148 1 223 121 50 80 115 239 107 260 -12 31 -112 57 -170 44z"/>
<path d="M13083 4175 c-69 -35 -133 -121 -133 -179 0 -68 195 -28 264 54 36
44 36 101 0 129 -35 28 -69 26 -131 -4z"/>
</g>
</svg>
