<?xml version="1.0" encoding="UTF-8" standalone="no"?>
<!DOCTYPE svg PUBLIC "-//W3C//DTD SVG 1.1//EN" "http://www.w3.org/Graphics/SVG/1.1/DTD/svg11.dtd">
<svg xmlns="http://www.w3.org/2000/svg" version="1.1" viewBox="0.00 0.00 350.00 200.00">
<path fill="#000000" d="
  M 25.56 176.65
  Q 29.87 177.45 34.17 175.37
  Q 45.97 169.65 49.99 167.41
  C 64.39 159.36 72.68 154.91 84.48 150.21
  Q 91.11 147.57 98.25 147.08
  C 102.25 146.81 103.99 151.69 99.50 152.79
  C 97.87 153.18 95.67 153.00 93.83 153.41
  Q 84.64 155.49 76.25 159.80
  Q 62.36 166.94 48.97 174.95
  C 42.41 178.88 27.85 187.38 20.56 182.41
  C 17.06 180.02 16.36 174.39 16.97 170.51
  Q 18.76 159.16 22.64 144.22
  Q 29.90 116.28 37.87 88.53
  Q 39.14 84.14 40.44 79.74
  C 45.63 62.21 50.64 44.69 57.02 27.54
  C 58.23 24.29 60.38 18.74 63.18 17.83
  C 68.12 16.23 67.61 25.94 67.36 28.25
  Q 66.92 32.36 62.78 32.53
  A 1.20 1.18 17.2 0 0 61.91 32.98
  Q 61.18 33.94 60.54 35.51
  Q 50.75 59.38 45.77 81.51
  C 44.14 88.76 42.38 95.15 41.04 101.18
  C 39.87 106.43 38.63 109.72 37.69 113.98
  C 36.66 118.64 34.96 123.02 33.87 127.65
  C 30.35 142.57 24.65 157.64 23.46 173.00
  Q 23.33 174.66 24.72 176.19
  Q 25.06 176.56 25.56 176.65
  Z"
/>
<path fill="#000000" d="
  M 196.56 103.01
  L 198.16 102.93
  Q 198.75 102.91 198.85 102.33
  Q 198.97 101.68 199.61 101.69
  Q 200.11 101.69 200.46 101.34
  C 202.36 99.44 205.25 101.86 205.79 103.91
  Q 207.01 108.58 207.12 113.38
  Q 207.13 113.86 207.60 113.95
  Q 209.85 114.39 210.64 112.54
  C 212.19 108.91 214.64 105.25 216.65 102.44
  C 218.48 99.87 222.41 99.44 223.23 103.26
  Q 224.07 107.21 224.13 111.26
  Q 224.14 111.99 225.06 114.00
  C 229.04 122.64 240.05 109.35 242.76 106.41
  C 246.47 102.38 250.85 105.99 248.88 110.12
  C 248.29 111.35 248.34 112.70 247.54 113.44
  Q 247.28 113.69 247.27 114.04
  L 247.16 118.25
  Q 247.14 118.75 247.63 118.88
  C 248.72 119.16 249.38 119.04 250.17 118.20
  C 252.04 116.20 253.74 114.65 255.23 112.14
  C 258.57 106.52 264.38 108.30 263.53 115.00
  Q 262.76 121.13 263.15 127.30
  Q 263.19 127.80 263.68 127.90
  C 265.14 128.20 266.27 128.09 267.38 126.96
  C 273.29 120.91 279.59 113.71 283.24 106.04
  Q 285.98 100.31 287.04 99.02
  C 290.83 94.41 299.00 89.99 304.93 93.67
  C 307.53 95.29 306.09 98.21 303.23 97.89
  C 293.55 96.81 286.73 106.08 290.58 115.06
  Q 294.37 123.91 300.42 131.36
  A 1.42 1.39 -12.4 0 0 301.19 131.84
  C 302.80 132.21 303.97 132.15 305.20 130.87
  C 312.96 122.83 320.10 114.09 328.11 105.09
  A 2.07 2.06 42.6 0 1 331.08 104.97
  L 331.54 105.42
  A 2.82 2.81 -47.7 0 1 331.72 109.30
  Q 322.99 119.41 307.19 139.44
  Q 305.07 142.12 305.27 144.75
  C 306.09 155.37 301.79 167.99 291.94 173.14
  C 285.88 176.31 283.02 171.24 283.92 165.75
  C 285.08 158.67 290.51 151.06 294.33 144.46
  Q 295.78 141.95 295.76 139.70
  C 295.69 133.52 288.72 124.00 285.44 118.85
  A 1.42 1.41 51.8 0 0 283.27 118.59
  C 278.64 122.99 274.53 128.05 269.76 132.52
  C 265.99 136.04 258.71 138.31 256.98 131.24
  Q 256.25 128.25 254.84 126.33
  Q 254.45 125.80 253.85 126.05
  C 246.41 129.11 243.63 129.36 240.41 121.30
  Q 239.72 119.58 237.43 120.50
  C 232.55 122.45 226.63 124.87 221.97 120.82
  C 220.68 119.71 220.09 118.07 219.09 116.77
  A 2.23 2.22 37.8 0 0 215.28 117.25
  C 213.55 121.30 208.87 131.61 202.94 126.30
  Q 200.40 124.02 199.97 118.73
  A 0.74 0.74 0.0 0 0 199.40 118.08
  C 197.90 117.75 196.80 117.86 195.86 119.20
  Q 191.13 125.93 186.33 135.03
  C 183.97 139.51 179.61 136.57 180.16 132.24
  Q 180.90 126.39 180.98 120.71
  A 0.69 0.68 -9.9 0 0 180.05 120.06
  C 178.00 120.83 175.82 121.98 173.87 122.40
  Q 164.96 124.35 161.96 116.11
  A 2.16 2.16 0.0 0 0 157.99 115.90
  C 156.56 118.83 153.29 125.74 150.22 127.14
  C 145.28 129.39 142.50 121.88 142.35 118.26
  Q 142.30 116.99 141.86 116.50
  A 1.56 1.55 39.9 0 0 139.38 116.72
  Q 133.73 125.85 127.95 135.19
  Q 127.22 136.36 125.46 136.89
  Q 124.99 137.03 124.57 136.77
  Q 122.93 135.78 122.67 133.82
  Q 122.37 131.61 121.83 129.44
  A 0.62 0.62 0.0 0 0 121.17 128.97
  L 119.03 129.15
  A 0.95 0.93 18.2 0 0 118.40 129.46
  C 114.87 133.31 106.77 139.89 102.70 132.82
  Q 100.99 129.85 100.76 127.51
  A 1.95 1.95 0.0 0 0 97.80 126.05
  C 93.99 128.39 89.52 129.64 86.55 125.47
  C 82.80 120.18 85.06 110.80 88.67 105.91
  C 90.54 103.37 93.96 104.15 93.92 107.46
  C 93.86 110.93 90.59 114.78 91.38 119.32
  Q 91.46 119.79 91.92 119.91
  C 93.52 120.30 94.57 120.06 95.54 118.63
  C 97.60 115.61 102.89 107.28 106.60 109.50
  C 108.49 110.63 108.50 113.04 108.28 115.00
  Q 107.65 120.65 107.55 126.03
  A 1.78 1.77 11.2 0 0 108.68 127.71
  Q 110.67 128.50 112.45 126.70
  Q 123.71 115.31 128.84 105.80
  Q 129.81 103.99 132.32 97.82
  C 132.96 96.27 135.61 92.70 137.57 95.44
  Q 138.35 96.53 137.75 98.28
  C 136.75 101.15 134.94 104.90 135.13 107.99
  A 1.37 1.37 0.0 0 0 137.46 108.88
  C 139.66 106.73 140.79 101.97 144.43 101.44
  C 148.89 100.79 148.29 110.16 148.06 114.14
  Q 148.03 114.79 148.66 114.89
  Q 150.16 115.12 151.60 114.82
  Q 152.05 114.72 152.27 114.31
  C 153.92 111.17 158.31 101.53 162.01 100.98
  C 164.61 100.59 165.46 102.99 165.63 105.25
  Q 165.92 109.10 166.94 113.55
  C 167.98 118.04 171.50 117.59 174.61 115.52
  C 179.98 111.92 185.74 106.73 188.52 100.78
  C 189.70 98.26 191.23 92.43 195.12 94.33
  C 197.46 95.47 195.95 100.34 196.05 102.55
  Q 196.08 103.03 196.56 103.01
  Z"
/>
</svg>
